<?xml version="1.0" encoding="utf-8"?>
<!-- Generator: Adobe Illustrator 16.0.0, SVG Export Plug-In . SVG Version: 6.00 Build 0)  -->
<!DOCTYPE svg PUBLIC "-//W3C//DTD SVG 1.1//EN" "http://www.w3.org/Graphics/SVG/1.1/DTD/svg11.dtd">
<svg version="1.1" id="Capa_1" xmlns="http://www.w3.org/2000/svg" xmlns:xlink="http://www.w3.org/1999/xlink" x="0px" y="0px"
	 width="460.075px" height="87.825px" viewBox="0 0 460.075 87.825" enable-background="new 0 0 460.075 87.825"
	 xml:space="preserve">
<g>
	<g>
		<path fill="#FFFFFF" d="M132.216,38.92c0,2.607-0.769,4.62-2.306,6.04c-1.537,1.421-3.721,2.131-6.551,2.131h-1.771v7.74h-6.304
			V31.499h8.075c2.946,0,5.159,0.645,6.639,1.932C131.477,34.718,132.216,36.548,132.216,38.92z M121.588,41.952h1.148
			c0.947,0,1.7-0.266,2.259-0.798s0.838-1.266,0.838-2.202c0-1.574-0.873-2.362-2.617-2.362h-1.628V41.952z"/>
		<path fill="#FFFFFF" d="M157.569,31.499v14.044c0,3.054-0.865,5.418-2.594,7.094s-4.221,2.514-7.477,2.514
			c-3.182,0-5.625-0.814-7.333-2.442c-1.707-1.628-2.562-3.968-2.562-7.021V31.499h6.336v13.692c0,1.649,0.309,2.847,0.926,3.591
			c0.616,0.745,1.526,1.117,2.729,1.117c1.287,0,2.221-0.369,2.801-1.109c0.58-0.739,0.87-1.949,0.87-3.63V31.499H157.569z"/>
		<path fill="#FFFFFF" d="M178.117,54.831h-13.852V31.499h13.852v5.06h-7.548v3.67h6.989v5.059h-6.989v4.405h7.548V54.831z"/>
		<path fill="#FFFFFF" d="M190.304,46.341v8.49H184V31.499h7.645c6.341,0,9.511,2.299,9.511,6.895c0,2.702-1.319,4.793-3.958,6.271
			l6.799,10.166h-7.149l-4.947-8.49H190.304z M190.304,41.602h1.181c2.202,0,3.304-0.974,3.304-2.921
			c0-1.606-1.08-2.409-3.239-2.409h-1.245V41.602z"/>
		<path fill="#FFFFFF" d="M218.21,54.831h-6.304V36.654h-5.697v-5.155h17.683v5.155h-5.682V54.831z"/>
		<path fill="#FFFFFF" d="M250.855,43.133c0,3.926-0.963,6.91-2.889,8.953s-4.745,3.064-8.458,3.064
			c-3.659,0-6.466-1.027-8.418-3.08c-1.952-2.054-2.928-5.043-2.928-8.969c0-3.884,0.971-6.849,2.912-8.897
			c1.941-2.048,4.764-3.071,8.466-3.071c3.713,0,6.527,1.016,8.442,3.048S250.855,39.197,250.855,43.133z M234.802,43.133
			c0,4.512,1.568,6.767,4.707,6.767c1.597,0,2.779-0.548,3.551-1.644s1.157-2.803,1.157-5.123c0-2.329-0.391-4.051-1.173-5.162
			s-1.949-1.668-3.503-1.668C236.381,36.303,234.802,38.58,234.802,43.133z"/>
		<path fill="#FFFFFF" d="M274.106,55.201c-2.431,0-4.327-0.685-5.69-2.055c-1.363-1.369-2.045-3.281-2.045-5.736
			c0-2.442,0.479-4.715,1.435-6.818c0.955-2.104,2.251-3.729,3.886-4.876c1.634-1.147,3.463-1.721,5.486-1.721
			c1.986,0,3.531,0.447,4.636,1.342c1.104,0.895,1.655,2.162,1.655,3.803c0,2.245-1.026,4-3.08,5.264
			c-2.055,1.265-4.981,1.897-8.78,1.897h-0.796l-0.037,0.573v0.536c0,1.37,0.349,2.443,1.045,3.22
			c0.697,0.777,1.736,1.166,3.118,1.166c0.889,0,1.771-0.117,2.646-0.352s1.912-0.635,3.108-1.202v3.46
			c-1.185,0.543-2.273,0.929-3.266,1.156C276.435,55.087,275.327,55.201,274.106,55.201z M276.919,37.326
			c-1.185,0-2.298,0.53-3.34,1.591c-1.043,1.062-1.793,2.461-2.249,4.2h0.537c2.319,0,4.132-0.329,5.44-0.989
			c1.307-0.66,1.961-1.595,1.961-2.804c0-0.629-0.197-1.119-0.592-1.471C278.281,37.502,277.696,37.326,276.919,37.326z"/>
		<path fill="#FFFFFF" d="M287.289,46.578l0.832-3.757h9.289l-0.832,3.757H287.289z"/>
		<path fill="#FFFFFF" d="M305.522,54.831h-4.329l6.106-28.793h4.348L305.522,54.831z"/>
		<path fill="#FFFFFF" d="M322.11,55.201c-2.431,0-4.327-0.685-5.69-2.055c-1.363-1.369-2.045-3.281-2.045-5.736
			c0-2.442,0.479-4.715,1.435-6.818c0.955-2.104,2.251-3.729,3.886-4.876c1.634-1.147,3.463-1.721,5.486-1.721
			c1.986,0,3.531,0.447,4.636,1.342c1.104,0.895,1.655,2.162,1.655,3.803c0,2.245-1.026,4-3.08,5.264
			c-2.055,1.265-4.981,1.897-8.78,1.897h-0.796l-0.037,0.573v0.536c0,1.37,0.349,2.443,1.045,3.22
			c0.697,0.777,1.736,1.166,3.118,1.166c0.889,0,1.771-0.117,2.646-0.352s1.912-0.635,3.108-1.202v3.46
			c-1.185,0.543-2.273,0.929-3.266,1.156C324.438,55.087,323.331,55.201,322.11,55.201z M324.923,37.326
			c-1.185,0-2.298,0.53-3.34,1.591c-1.043,1.062-1.793,2.461-2.249,4.2h0.537c2.319,0,4.132-0.329,5.44-0.989
			c1.307-0.66,1.961-1.595,1.961-2.804c0-0.629-0.197-1.119-0.592-1.471C326.285,37.502,325.7,37.326,324.923,37.326z"/>
		<path fill="#FFFFFF" d="M341.806,55.201c-1.739,0-3.114-0.626-4.126-1.879c-1.012-1.252-1.518-3.013-1.518-5.282
			c0-2.492,0.429-4.823,1.286-6.995c0.857-2.171,2.038-3.889,3.544-5.153c1.505-1.265,3.157-1.896,4.959-1.896
			c1.196,0,2.227,0.28,3.09,0.842s1.536,1.379,2.018,2.452h0.185l1.147-2.924h3.331l-4.367,20.466h-3.368l0.389-3.257h-0.111
			C346.314,53.992,344.162,55.201,341.806,55.201z M343.397,51.686c1.012,0,2.005-0.479,2.979-1.435
			c0.974-0.956,1.776-2.235,2.405-3.84c0.629-1.604,0.943-3.355,0.943-5.255c0-1.086-0.29-1.958-0.869-2.618
			c-0.58-0.66-1.339-0.99-2.276-0.99c-1.049,0-2.035,0.475-2.961,1.425c-0.925,0.95-1.665,2.242-2.22,3.877
			c-0.556,1.635-0.833,3.327-0.833,5.079c0,1.259,0.25,2.199,0.749,2.822C341.815,51.374,342.509,51.686,343.397,51.686z"/>
		<path fill="#FFFFFF" d="M373.012,33.995c0.765,0,1.431,0.074,1.998,0.222l-0.943,4.053c-0.666-0.173-1.295-0.259-1.888-0.259
			c-1.555,0-2.942,0.697-4.163,2.091c-1.222,1.395-2.072,3.22-2.554,5.478l-1.962,9.252h-4.366l4.366-20.466h3.405l-0.389,3.793
			h0.166c1.024-1.48,2.048-2.544,3.072-3.191C370.778,34.319,371.864,33.995,373.012,33.995z"/>
		<path fill="#FFFFFF" d="M388.618,54.831l2.627-12.436c0.223-1.109,0.333-1.918,0.333-2.424c0-1.615-0.795-2.424-2.387-2.424
			c-0.888,0-1.764,0.352-2.628,1.055c-0.863,0.703-1.641,1.718-2.331,3.044c-0.691,1.326-1.209,2.828-1.555,4.506l-1.813,8.679
			h-4.366l4.366-20.466h3.405l-0.389,3.793h0.166c1.024-1.455,2.079-2.513,3.165-3.173c1.085-0.66,2.264-0.99,3.534-0.99
			c1.652,0,2.933,0.469,3.84,1.406c0.906,0.938,1.359,2.27,1.359,3.997c0,0.851-0.142,1.968-0.426,3.349l-2.534,12.084H388.618z"/>
		<path fill="#FFFFFF" d="M405.112,54.831h-4.366l4.366-20.466h4.349L405.112,54.831z M405.982,29.332
			c0-0.839,0.24-1.518,0.722-2.035c0.481-0.519,1.159-0.777,2.035-0.777c0.654,0,1.185,0.163,1.592,0.49s0.61,0.823,0.61,1.489
			c0,0.876-0.247,1.567-0.74,2.072c-0.493,0.507-1.141,0.759-1.942,0.759c-0.654,0-1.197-0.16-1.629-0.48
			C406.198,30.528,405.982,30.023,405.982,29.332z"/>
		<path fill="#FFFFFF" d="M425.179,54.831l2.627-12.436c0.223-1.109,0.333-1.918,0.333-2.424c0-1.615-0.795-2.424-2.387-2.424
			c-0.888,0-1.764,0.352-2.628,1.055c-0.863,0.703-1.641,1.718-2.331,3.044c-0.691,1.326-1.209,2.828-1.555,4.506l-1.813,8.679
			h-4.366l4.366-20.466h3.405l-0.389,3.793h0.166c1.024-1.455,2.079-2.513,3.165-3.173c1.085-0.66,2.264-0.99,3.534-0.99
			c1.652,0,2.933,0.469,3.84,1.406c0.906,0.938,1.359,2.27,1.359,3.997c0,0.851-0.142,1.968-0.426,3.349l-2.534,12.084H425.179z"/>
		<path fill="#FFFFFF" d="M457.587,34.365l-0.573,2.535l-3.554,0.61c0.346,0.716,0.519,1.561,0.519,2.535
			c0,2.381-0.734,4.271-2.202,5.672s-3.436,2.1-5.902,2.1c-0.642,0-1.21-0.049-1.703-0.147c-1.369,0.493-2.054,1.135-2.054,1.924
			c0,0.47,0.194,0.79,0.583,0.963s0.953,0.309,1.693,0.407l2.35,0.296c2.171,0.271,3.726,0.811,4.663,1.619
			c0.938,0.808,1.406,1.964,1.406,3.47c0,2.417-0.932,4.286-2.794,5.606c-1.862,1.319-4.509,1.979-7.938,1.979
			c-2.504,0-4.444-0.462-5.819-1.388c-1.375-0.925-2.063-2.195-2.063-3.812c0-1.271,0.429-2.369,1.286-3.294s2.236-1.708,4.136-2.35
			c-0.938-0.556-1.406-1.339-1.406-2.351c0-0.851,0.287-1.588,0.86-2.211c0.574-0.623,1.478-1.225,2.711-1.805
			c-1.665-0.999-2.498-2.553-2.498-4.663c0-2.417,0.756-4.366,2.267-5.847s3.507-2.221,5.986-2.221c0.986,0,1.974,0.123,2.961,0.37
			H457.587z M442.432,54.498c-1.382,0.222-2.442,0.659-3.183,1.313c-0.74,0.653-1.11,1.462-1.11,2.424
			c0,0.802,0.343,1.44,1.027,1.915c0.685,0.476,1.73,0.713,3.137,0.713c2.01,0,3.583-0.333,4.718-0.999
			c1.136-0.666,1.703-1.623,1.703-2.868c0-0.63-0.278-1.123-0.833-1.48c-0.555-0.358-1.529-0.61-2.924-0.759L442.432,54.498z
			 M447.428,36.9c-0.802,0-1.505,0.237-2.109,0.712c-0.604,0.476-1.073,1.123-1.406,1.943s-0.499,1.718-0.499,2.692
			c0,0.876,0.219,1.552,0.656,2.026s1.064,0.712,1.878,0.712c0.802,0,1.496-0.24,2.082-0.722c0.586-0.48,1.042-1.141,1.369-1.979
			s0.49-1.758,0.49-2.758C449.889,37.776,449.068,36.9,447.428,36.9z"/>
	</g>
	<g>
		<circle fill="#FFFFFF" cx="43.913" cy="43.913" r="43.913"/>
		<g>
			<path fill="#005487" d="M28.969,26.961l0.235,20.384c2.608-0.787,5.153-1.957,7.521-3.447V27.028c0-0.819,0.21-1.507,0.622-2.059
				c0.411-0.547,0.935-0.888,1.572-1.028l2.131-0.411c0.643-0.045,0.959-0.298,0.959-0.754c0-0.412-0.364-0.617-1.091-0.617H24.78
				c-0.728,0-1.091,0.205-1.091,0.617c0,0.456,0.316,0.709,0.956,0.754l2.128,0.411c0.69,0.141,1.229,0.473,1.619,0.997
				C28.77,25.464,28.969,26.138,28.969,26.961z"/>
			<path fill="#005487" d="M54.606,42.114v10.373c0,3.16-0.872,5.518-2.608,7.074c-1.744,1.553-3.774,2.33-6.112,2.33
				c-2.563,0-4.729-0.902-6.484-2.709c-1.77-1.807-2.647-4.268-2.647-7.379v-1.908c-2.521,0.51-5.145,0.768-7.505,0.09l0.026,2.301
				c0,4.393,1.405,7.719,4.219,9.986c2.814,2.266,6.853,3.396,12.119,3.396c4.712,0,8.318-1.131,10.815-3.396
				c2.487-2.268,3.735-5.594,3.735-9.986l0.345-17.142C58.857,37.747,56.875,40.124,54.606,42.114z"/>
			<path fill="#AC162C" d="M52.179,42.104c-3.249,2.505-7.115,3.96-11.037,5.034c-3.103,0.854-6.918,1.953-10.29,1.5
				c10.854-3.832,20.162-14.002,21.013-25.681c4.093,0,8.184,0.001,12.272,0.004C62.468,30.359,58.191,37.469,52.179,42.104z"/>
		</g>
	</g>
</g>
</svg>
